<svg width="24" height="24" viewBox="0 0 24 24" xmlns="http://www.w3.org/2000/svg">
<path d="M0 0.5C0 0.223857 0.223858 0 0.5 0H10.5C10.7761 0 11 0.223858 11 0.5V13.5C11 13.7761 10.7761 14 10.5 14H0.5C0.223858 14 0 13.7761 0 13.5V0.5Z M13 10.5C13 10.2239 13.2239 10 13.5 10H23.5C23.7761 10 24 10.2239 24 10.5V23.5C24 23.7761 23.7761 24 23.5 24H13.5C13.2239 24 13 23.7761 13 23.5V10.5Z M0 16.5C0 16.2239 0.223858 16 0.5 16H10.5C10.7761 16 11 16.2239 11 16.5V23.5C11 23.7761 10.7761 24 10.5 24H0.5C0.223858 24 0 23.7761 0 23.5V16.5Z M13 0.5C13 0.223858 13.2239 0 13.5 0H23.5C23.7761 0 24 0.223858 24 0.5V7.5C24 7.77614 23.7761 8 23.5 8H13.5C13.2239 8 13 7.77614 13 7.5V0.5Z" />
</svg>
